<svg width="70" height="65" viewBox="0 0 70 65" fill="none" xmlns="http://www.w3.org/2000/svg">
<path d="M29.947 47.9966L52.8355 47.7667C56.0896 47.7322 59.5518 47.6402 62.2683 45.8527C62.7596 45.5308 63.2336 45.1285 63.4532 44.5882C63.6382 44.1341 63.6208 43.6284 63.6093 43.1398C63.3838 36.4265 63.7422 29.8109 63.9907 23.0689C64.0081 22.5286 64.0254 21.971 63.8 21.4767C63.5804 20.9882 63.0428 20.5916 62.5111 20.7123C61.8233 20.8675 61.5863 21.7009 61.4822 22.3964C60.806 26.8336 60.3205 31.2938 60.0257 35.7713C59.9852 36.4265 59.6153 37.3289 58.9911 37.122C58.4131 32.0755 57.8351 27.029 57.2571 21.9768C57.0837 20.4709 56.6734 18.6604 55.2226 18.2063C54.6215 19.9134 54.6157 21.7641 54.6157 23.5747V33.5584C54.6157 35.6851 53.7256 38.5417 50.9281 37.9899C48.7895 37.5703 47.8879 34.57 47.5006 32.7825C46.8417 29.7075 46.6799 26.483 45.3736 23.6206C42.2409 16.7694 32.7849 14.2232 25.9531 17.4591C19.1212 20.6951 15.1793 28.4372 15.1099 35.9609C15.0984 37.2657 15.1504 38.6911 14.3412 39.7199C13.2604 41.0994 3.92578 42.2374 6.42271 45.3699C6.94868 46.0309 7.82145 46.301 8.6422 46.5194C11.7402 47.3471 14.8209 47.7437 17.919 47.9276C21.884 48.1633 25.8721 48.0368 29.947 47.9966Z" fill="#004322"/>
</svg>
