<svg width="70" height="65" viewBox="0 0 70 65" fill="none" xmlns="http://www.w3.org/2000/svg">
<path d="M44.174 30.1935C47.5013 30.6241 50.1043 30.8804 52.6821 31.316C55.1383 31.7312 57.5641 32.3411 60 32.8639L59.8278 34.909H46.5289C48.7572 40.3369 56.6018 41.3159 54.8445 50.2292C48.6914 45.5547 43.8094 41.849 38.112 37.523C38.6438 44.422 39.1097 50.5009 39.5756 56.5848C38.4665 56.7437 37.3524 56.9026 36.2433 57.0666L32.7135 38.9684C29.8369 43.4584 27.9986 46.9335 25.5626 49.9011C24.013 51.7873 21.572 52.9252 19.531 54.3962C20.1489 51.8489 20.2806 49.0298 21.4859 46.8105C23.4154 43.2738 26.064 40.137 29.5635 35.2012C22.5443 38.9428 17.1002 41.8438 11.656 44.7398L10.4608 42.7459C13.4842 36.5492 21.2529 36.5953 27.0161 31.8901C20.5287 31.4237 15.2669 31.0444 10 30.66L10.1114 28.1894H26.0286C21.3086 23.7815 17.4699 20.1988 13.6311 16.6109C14.1882 15.7344 14.7453 14.858 15.3023 13.9866C19.9615 16.3854 24.6156 18.7841 29.9078 21.5109C30.4193 17.0927 30.9359 12.5822 31.4575 8.07691C32.2425 8.07691 33.0224 8.07178 33.8073 8.06665C34.5417 13.228 35.2709 18.3843 36.1572 24.6067C39.7123 19.3428 42.8624 14.6837 46.0124 10.0246L48.2862 11.1625L41.3988 25.8932C46.5289 23.5765 50.8538 21.6237 55.1788 19.6708L56.6322 21.9056C52.7682 24.4786 48.9041 27.0516 44.174 30.2038V30.1935Z" fill="#D1CB53"/>
</svg>
