<svg width="70" height="65" viewBox="0 0 70 65" fill="none" xmlns="http://www.w3.org/2000/svg">
<path d="M63.3262 42.2634C63.6653 44.7795 62.6171 49.8323 59.9535 50.029C57.1851 50.2339 57.1912 46.8736 57.0001 45.7343C56.513 42.8453 55.5943 39.944 54.5831 37.1164C53.0108 32.707 50.3718 28.5763 45.8338 25.0972C38.1882 19.2371 28.6312 19.565 21.7933 25.8143C16.5893 30.572 15.1959 36.096 14.012 41.7061C13.6483 43.419 13.5989 45.1606 13.0317 46.8572C12.7049 47.8448 11.3052 51.0412 9.0054 50.8854C8.85125 50.8731 8.72176 50.8035 8.61077 50.7338C6.42808 49.402 5.66966 42.0134 5.96562 39.8743C7.21728 30.8425 11.3977 20.4952 23.5629 15.3031C32.5465 11.4675 43.7868 12.6723 51.5002 18.3684C58.3134 23.4006 61.162 29.5557 62.4815 36.096C62.8638 38.0015 63.0179 39.9317 63.3262 42.2593V42.2634Z" fill="#37725F"/>
<path d="M18.4401 45.4844C18.8717 40.739 20.1665 35.76 23.8845 31.2195C26.4741 28.06 29.779 25.1587 35.8831 25.3308C42.1168 25.5029 45.1689 28.5886 47.2899 31.9981C48.6525 34.1946 49.9165 36.4812 50.2865 38.8621C50.4776 40.0874 50.4283 44.8943 47.925 45.1238C44.392 45.4475 42.4498 38.1696 41.5372 36.6615C40.9638 35.7108 40.5322 34.5921 39.6875 33.6987C38.7133 32.6661 38.0412 31.1785 34.3787 31.5186C32.7386 31.6703 30.3771 33.3832 29.6495 34.5757C27.7258 37.7229 26.5173 41.0627 25.0005 44.3206C24.4271 45.55 23.9461 46.8531 22.9473 47.9677C22.528 48.4349 21.93 49.1397 21.0544 49.2586C18.2736 49.6356 18.3415 46.5498 18.4401 45.4844Z" fill="#DD5C35"/>
<path d="M34.3786 40.6611C33.0344 40.4234 31.9554 44.5255 29.7419 44.1648C27.5468 43.8083 29.2301 40.9521 29.637 40.0997C30.4694 38.3458 31.7889 36.2599 35.1061 36.4403C37.1963 36.555 38.6206 38.5917 38.6268 40.7472C38.633 42.9109 37.4738 43.5051 36.3886 43.083C35.698 42.8125 35.1555 40.8004 34.3786 40.6652V40.6611Z" fill="#F9BDB2"/>
</svg>
