<svg width="41" height="39" viewBox="0 0 41 39" fill="none" xmlns="http://www.w3.org/2000/svg">
<path id="Vector" d="M2.43735 15.2304C0.0896223 17.1215 0.0415158 21.2916 2.34469 23.2627C11.9582 31.4904 19.21 35.9346 22.9427 37.9689C25.0586 39.1221 27.4446 37.7279 28.024 34.9801C28.3989 33.2023 28.8313 30.8489 29.1724 28.139L35.2015 29.2267C37.5087 29.6429 40.0015 28.1682 40.483 25.0003C40.6896 23.6413 40.8518 21.9444 40.8753 19.9088C40.8987 17.8731 40.7757 16.1713 40.6006 14.8057C40.1923 11.6226 37.7347 10.0627 35.4187 10.3994L29.3669 11.2791C29.0885 8.55862 28.7105 6.1912 28.3768 4.40127C27.8609 1.63467 25.5081 0.158968 23.3664 1.23883C19.5883 3.14394 12.2368 7.33693 2.43735 15.2304Z" fill="#D1CB53"/>
</svg>
