<svg width="20" height="21" viewBox="0 0 20 21" fill="none" xmlns="http://www.w3.org/2000/svg">
<path id="Vector" d="M17.9055 0.599574C18.8878 0.704652 19.6613 1.50321 19.763 2.51721C20.25 7.37399 19.8963 11.556 19.5086 14.23C19.284 15.779 17.6333 16.4243 16.4427 15.4535C15.6315 14.7921 14.6604 13.9657 13.5904 12.987C9.12506 17.4242 6.40413 19.7033 5.24561 20.6209C4.82822 20.9516 4.30053 21.0965 3.7992 20.9317C3.17871 20.7277 2.28891 20.3139 1.48418 19.4901C0.66115 18.6477 0.257019 17.6994 0.0626309 17.0505C-0.0867794 16.5517 0.0408864 16.0298 0.341885 15.6102C1.19936 14.4151 3.38207 11.5696 7.74838 6.94949C6.80933 5.8531 6.01598 4.85805 5.38025 4.02603C4.44123 2.79704 5.06639 1.09457 6.56601 0.862556C9.1545 0.462073 13.2033 0.096593 17.9055 0.599574Z" fill="#D1CB53"/>
</svg>
