<svg width="42" height="38" viewBox="0 0 42 38" fill="currentColor" xmlns="http://www.w3.org/2000/svg">
<path d="M2.6644 14.9217C0.316673 16.7924 0.268567 20.9173 2.57174 22.8671C12.1852 31.0056 19.4371 35.4017 23.1697 37.414C25.2856 38.5547 27.6716 37.1756 28.2511 34.4576C28.626 32.6991 29.0584 30.3711 29.3995 27.6906L35.4286 28.7664C37.7358 29.1781 40.2285 27.7194 40.71 24.5858C40.9166 23.2415 41.0788 21.563 41.1023 19.5494C41.1257 17.5358 41.0028 15.8524 40.8276 14.5016C40.4193 11.3529 37.9617 9.80996 35.6457 10.143L29.5939 11.0132C29.3156 8.32214 28.9375 5.98035 28.6038 4.2098C28.088 1.47315 25.7351 0.0134207 23.5935 1.08159C19.8154 2.96608 12.4638 7.11367 2.6644 14.9217Z" fill="#D1CB53"/>
</svg>
