<svg width="95" height="48" viewBox="0 0 95 48" fill="none" xmlns="http://www.w3.org/2000/svg">
<g id="Frame 72">
<path id="Vector" d="M3.6644 19.9217C1.31667 21.7924 1.26857 25.9173 3.57174 27.8671C13.1852 36.0056 20.4371 40.4017 24.1697 42.414C26.2856 43.5547 28.6716 42.1756 29.2511 39.4576C29.626 37.6991 30.0584 35.3711 30.3995 32.6906L36.4286 33.7664C38.7358 34.1781 41.2285 32.7194 41.71 29.5858C41.9166 28.2415 42.0788 26.563 42.1023 24.5494C42.1257 22.5358 42.0028 20.8524 41.8276 19.5016C41.4193 16.3529 38.9617 14.81 36.6457 15.143L30.5939 16.0132C30.3156 13.3221 29.9375 10.9804 29.6038 9.2098C29.088 6.47315 26.7351 5.01342 24.5935 6.08159C20.8154 7.96608 13.4638 12.1137 3.6644 19.9217Z" fill="#D1CB53"/>
<path id="Vector_2" d="M90.609 20.2306C92.9568 22.1012 93.0049 26.2261 90.7017 28.1759C81.0882 36.3144 73.8364 40.7105 70.1037 42.7229C67.9878 43.8635 65.6018 42.4844 65.0223 39.7664C64.6475 38.0079 64.215 35.6799 63.8739 32.9994L57.8449 34.0753C55.5376 34.487 53.0449 33.0283 52.5634 29.8947C52.3568 28.5503 52.1946 26.8719 52.1711 24.8582C52.1477 22.8446 52.2707 21.1613 52.4458 19.8104C52.8541 16.6617 55.3117 15.1188 57.6277 15.4518L63.6795 16.322C63.9578 13.631 64.3359 11.2892 64.6696 9.51863C65.1854 6.78199 67.5383 5.32226 69.68 6.39043C73.4581 8.27492 80.8096 12.4225 90.609 20.2306Z" fill="#37725F"/>
</g>
</svg>
