<svg width="41" height="39" viewBox="0 0 41 39" fill="none" xmlns="http://www.w3.org/2000/svg">
<path d="M38.5626 15.2304C40.9104 17.1215 40.9585 21.2916 38.6553 23.2627C29.0418 31.4904 21.79 35.9346 18.0573 37.9689C15.9414 39.1221 13.5554 37.7279 12.976 34.9801C12.6011 33.2023 12.1687 30.8489 11.8276 28.139L5.79847 29.2267C3.49125 29.6429 0.998548 28.1682 0.517046 25.0003C0.310447 23.6413 0.148218 21.9444 0.124736 19.9088C0.101307 17.8731 0.224273 16.1713 0.399442 14.8057C0.807732 11.6226 3.26533 10.0627 5.58133 10.3994L11.6331 11.2791C11.9115 8.55862 12.2895 6.1912 12.6232 4.40127C13.1391 1.63467 15.4919 0.158968 17.6336 1.23883C21.4117 3.14394 28.7632 7.33693 38.5626 15.2304Z" fill="#D1CB53"/>
</svg>
