<svg width="22" height="22" viewBox="0 0 22 22" fill="none" xmlns="http://www.w3.org/2000/svg">
<g id="Group 4">
<path id="Vector" d="M18.8614 0.0482608C20.6971 -0.30148 22.3015 1.30289 21.9517 3.13858C20.4919 10.8008 18.7224 15.8933 17.7156 18.4158C17.1449 19.8456 15.4794 20.4069 14.1613 19.6035C13.3085 19.0837 12.21 18.3659 11.0198 17.4668L8.55987 20.6837C7.61851 21.9147 5.87169 22.494 4.4409 21.4813C3.82707 21.0469 3.10627 20.4601 2.32307 19.6769C1.53992 18.8937 0.953112 18.1729 0.518665 17.5591C-0.49399 16.1283 0.0853024 14.3815 1.31636 13.4401L4.53318 10.9802C3.63407 9.79006 2.91636 8.69146 2.39653 7.83869C1.59308 6.52056 2.15439 4.85511 3.58425 4.28437C6.1067 3.27757 11.1993 1.50807 18.8614 0.0482608Z" fill="#EEEEE4"/>
</g>
</svg>
