<svg width="20" height="22" viewBox="0 0 20 22" fill="none" xmlns="http://www.w3.org/2000/svg">
<path d="M17.9055 0.666224C18.8878 0.771303 19.6613 1.56986 19.763 2.58386C20.25 7.44064 19.8963 11.6226 19.5086 14.2966C19.284 15.8456 17.6333 16.491 16.4427 15.5201C15.6315 14.8587 14.6604 14.0324 13.5904 13.0536C9.12506 17.4908 6.40413 19.7699 5.24561 20.6876C4.82822 21.0182 4.30053 21.1632 3.7992 20.9984C3.17871 20.7943 2.28891 20.3805 1.48418 19.5567C0.66115 18.7143 0.257019 17.7661 0.0626309 17.1172C-0.0867794 16.6184 0.0408864 16.0964 0.341885 15.6769C1.19936 14.4817 3.38207 11.6363 7.74838 7.01614C6.80933 5.91975 6.01598 4.9247 5.38025 4.09268C4.44123 2.86369 5.06639 1.16122 6.56601 0.929207C9.1545 0.528724 13.2033 0.163243 17.9055 0.666224Z" fill="#DD5C35"/>
</svg>
