<svg width="22" height="24" viewBox="0 0 22 24" fill="none" xmlns="http://www.w3.org/2000/svg">
<path id="Vector" d="M13.1434 0.826855C12.3274 0.13189 11.131 0.111457 10.2705 0.777819C6.14876 3.96947 3.17779 7.3254 1.39904 9.59828C0.368581 10.9149 1.10382 12.6876 2.74543 12.9091C3.86385 13.0601 5.22946 13.2154 6.78694 13.3363C7.02896 14.979 7.30932 19.8725 7.46583 21.4586C7.5222 22.0301 7.8047 22.5517 8.30715 22.8245C8.92907 23.1622 9.76104 23.1426 11.0003 23.1689C12.2675 23.196 13.4571 23.2305 14.1045 22.9057C14.6021 22.6561 14.9105 22.1716 15.0099 21.6261C15.2933 20.0724 15.8536 15.1852 15.8272 13.4857C17.3777 13.4171 18.7409 13.3085 19.8601 13.1959C21.5132 13.0297 22.3628 11.2852 21.4207 9.93541C19.7946 7.6056 17.0493 4.15351 13.1434 0.826855Z" fill="#DD5C35"/>
</svg>
