<svg width="24" height="24" viewBox="0 0 24 24" fill="none" xmlns="http://www.w3.org/2000/svg">
<path id="Union" fill-rule="evenodd" clip-rule="evenodd" d="M20.7907 7.83173C21.0206 7.83483 21.2236 7.83771 21.4004 7.84045C22.0929 7.8511 23.1949 8.12628 23.4851 9.20818C23.5518 9.457 23.5937 9.74262 23.5937 10.0658C23.5937 10.3889 23.5518 10.6745 23.4851 10.9233C23.2373 11.8472 22.3975 12.1828 21.7262 12.2678L21.7234 12.2805L21.6608 12.2829C21.601 12.7315 21.5345 13.3007 21.4597 13.9404C21.2232 15.9644 20.9041 18.6943 20.4556 20.5449C20.1058 21.9883 18.8847 23.057 17.3795 23.2162C16.0629 23.3554 14.173 23.5 12.0002 23.5C9.82736 23.5 7.93746 23.3554 6.6208 23.2162C5.11566 23.057 3.89456 21.9883 3.54475 20.5449C3.06722 18.5746 2.69677 15.6075 2.44076 13.557C2.38017 13.0717 2.32599 12.6378 2.27832 12.2805L2.27625 12.2805L2.27101 12.2674C1.60029 12.1817 0.762773 11.8457 0.515356 10.9233C0.448609 10.6745 0.406738 10.3889 0.406738 10.0658C0.406738 9.74262 0.448609 9.457 0.515356 9.20818C0.80556 8.12628 1.90757 7.8511 2.60006 7.84045C2.77688 7.83771 2.97989 7.83483 3.2098 7.83173C4.02721 5.8226 4.99472 4.06013 5.59903 3.02982C6.0958 2.18291 7.01215 1.70091 7.97415 1.70091H8.7353C8.94656 1.0686 10.1614 0.709838 10.1614 0.709838C10.1614 0.709838 10.6913 0.5 12.0002 0.5C13.3092 0.5 13.8391 0.709838 13.8391 0.709838C13.8391 0.709838 15.0539 1.0686 15.2652 1.70091H16.0263C16.9883 1.70091 17.9047 2.18291 18.4014 3.02982C19.0057 4.06013 19.9733 5.8226 20.7907 7.83173ZM2.15217 11.3362C2.13174 11.1837 2.12372 11.1239 2.1521 11.3363L2.15217 11.3362ZM12.0002 4.42683C12.8276 4.42683 13.8391 4.21286 13.8391 4.21286C13.8391 4.21286 15.0539 3.8541 15.2652 3.22179H16.0263C16.4682 3.22179 16.8577 3.44062 17.0626 3.79002C17.587 4.68399 18.3885 6.13935 19.1108 7.81313C17.4486 7.79787 15.1057 7.78443 12.0002 7.78443C8.89472 7.78443 6.55186 7.79787 4.88966 7.81313C5.61201 6.13935 6.41351 4.68399 6.93789 3.79002C7.14282 3.44062 7.53231 3.22179 7.97415 3.22179H8.7353C8.94656 3.8541 10.1614 4.21286 10.1614 4.21286C10.1614 4.21286 11.1728 4.42683 12.0002 4.42683ZM8.64332 15.6679C8.58299 15.2521 8.19149 14.9632 7.76892 15.0226C7.34635 15.082 7.0527 15.4672 7.11309 15.8829C7.11309 15.8829 6.99674 17.0963 7.13845 18.0772C7.28016 19.0582 7.62835 19.8056 7.62835 19.8056C7.68869 20.2214 8.08019 20.5103 8.50276 20.4509C8.92533 20.3915 9.21898 20.0063 9.15859 19.5906L8.64332 15.6679ZM16.2316 15.0226C15.809 14.9632 15.4175 15.2521 15.3571 15.6679C15.3571 15.6679 15.1791 16.9553 14.9921 17.8902C14.8051 18.8252 14.8419 19.5906 14.8419 19.5906C14.7815 20.0063 15.0751 20.3915 15.4977 20.4509C15.9203 20.5103 16.3118 20.2214 16.3721 19.8056C16.3721 19.8056 16.5354 18.6382 16.6297 18.0313C16.7241 17.4243 16.8874 15.8829 16.8874 15.8829C16.9478 15.4672 16.6541 15.082 16.2316 15.0226ZM12.7731 15.7753C12.7731 15.3553 12.4271 15.0149 12.0002 15.0149C11.5734 15.0149 11.2273 15.3553 11.2273 15.7753C11.2273 15.7753 11.0653 17.3293 11.0653 17.8902C11.0653 18.4512 11.2273 19.698 11.2273 19.698C11.2273 20.118 11.5734 20.4584 12.0002 20.4584C12.4271 20.4584 12.7731 20.118 12.7731 19.698C12.7731 19.698 12.9352 18.6382 12.9352 17.8902C12.9352 17.1423 12.7731 15.7753 12.7731 15.7753Z" fill="#37725F"/>
</svg>
