<svg width="58" height="48" viewBox="0 0 58 48" fill="none" xmlns="http://www.w3.org/2000/svg">
<path id="Vector" d="M5.74442 42.8443C14.208 49.0812 25.0167 48.0671 35.0524 47.7224C42.7102 47.4573 51.2196 45.0779 55.4907 38.0258C56.7353 35.9645 57.4035 33.5917 57.7572 31.2057C57.9341 30.0193 58.0389 28.813 57.9865 27.6133C57.8489 24.2662 56.3488 21.8073 54.8028 18.9772C53.5975 16.7767 52.0122 16.0079 50.4007 14.152C50.1715 13.8935 50.0928 13.5423 50.0142 13.2109C49.726 11.9913 44.8654 -0.151019 44.7016 0.00142317C41.649 2.7984 38.5963 5.60201 35.5437 8.399C33.9912 9.81737 33.4802 10.5928 31.5281 10.5995C29.7594 10.6127 27.9055 10.0759 26.1172 10.0096C24.1716 9.93668 22.2326 10.0494 20.2936 10.2416C18.9965 10.3675 16.1601 11.355 14.9809 10.9375C13.8608 10.5398 13.1467 8.70388 12.2886 7.7097C11.3453 6.60946 10.2644 5.62853 9.20321 4.6476L5.25967 1.00887C4.25085 2.92434 3.60888 5.29713 3.18309 7.7362C2.74419 10.2482 2.52801 12.8198 2.3839 15.007C2.11532 19.0434 1.41439 23.0334 0.720017 27.0102C0.0649441 30.7815 -0.701491 34.3804 1.21132 37.9595C2.27254 39.9413 3.95607 41.5121 5.75752 42.8443H5.74442ZM39.6968 32.7433C41.0594 32.7433 42.1665 33.7309 42.1665 34.9504C42.1665 36.17 41.0594 37.1575 39.6968 37.1575C38.3343 37.1575 37.2272 36.17 37.2272 34.9504C37.2272 33.7309 38.3343 32.7433 39.6968 32.7433ZM18.6035 32.7433C19.966 32.7433 21.0731 33.7309 21.0731 34.9504C21.0731 36.17 19.966 37.1575 18.6035 37.1575C17.2409 37.1575 16.1339 36.17 16.1339 34.9504C16.1339 33.7309 17.2409 32.7433 18.6035 32.7433Z" fill="#036147"/>
</svg>
