<svg width="37" height="36" viewBox="0 0 37 36" fill="none" xmlns="http://www.w3.org/2000/svg">
<circle cx="18.5" cy="18" r="18" fill="#37725F"/>
<path d="M27.202 10.5838C28.0714 11.5423 27.9992 13.0242 27.0408 13.8937C24.8818 15.8522 23.4203 17.4672 22.2135 19.3507C20.9975 21.2487 19.9761 23.5194 18.8122 26.8627C18.5449 27.6306 17.8987 28.2049 17.1049 28.3804C16.311 28.5558 15.483 28.3072 14.917 27.7236L9.85 22.4983C8.94908 21.5692 8.97192 20.0858 9.90096 19.1849C10.83 18.284 12.3135 18.3068 13.2144 19.2358L15.7125 21.812C16.4961 19.9282 17.3142 18.3106 18.2675 16.8226C19.774 14.4712 21.554 12.5437 23.8921 10.4226C24.8506 9.55315 26.3325 9.62532 27.202 10.5838Z" fill="white"/>
</svg>
