<svg width="22" height="12" viewBox="0 0 22 12" fill="none" xmlns="http://www.w3.org/2000/svg">
<g id="chevron down">
<g id="Vector">
<mask id="path-1-inside-1_5_359" fill="white">
<path d="M0.5 11.25L11 0.75L21.5 11.25"/>
</mask>
<path d="M0.5 11.25L11 0.75L21.5 11.25" fill="#DD5C35"/>
<path d="M2.35616 13.1062C1.33103 14.1313 -0.331029 14.1313 -1.35616 13.1062C-2.38128 12.081 -2.38128 10.419 -1.35616 9.39384L2.35616 13.1062ZM11 0.75L9.14384 -1.10616C10.169 -2.13128 11.831 -2.13128 12.8562 -1.10616L11 0.75ZM23.3562 9.39384C24.3813 10.419 24.3813 12.081 23.3562 13.1062C22.331 14.1313 20.669 14.1313 19.6438 13.1062L23.3562 9.39384ZM-1.35616 9.39384L9.14384 -1.10616L12.8562 2.60616L2.35616 13.1062L-1.35616 9.39384ZM12.8562 -1.10616L23.3562 9.39384L19.6438 13.1062L9.14384 2.60616L12.8562 -1.10616Z" fill="#DD5C35" mask="url(#path-1-inside-1_5_359)"/>
</g>
</g>
</svg>
