<svg width="22" height="12" viewBox="0 0 22 12" fill="none" xmlns="http://www.w3.org/2000/svg">
<g id="chevron down">
<g id="Vector">
<mask id="path-1-inside-1_5_1204" fill="white">
<path d="M0.5 0.75L11 11.25L21.5 0.75"/>
</mask>
<path d="M0.5 0.75L11 11.25L21.5 0.75" fill="#DD5C35"/>
<path d="M2.35616 -1.10616C1.33103 -2.13128 -0.331029 -2.13128 -1.35616 -1.10616C-2.38128 -0.0810291 -2.38128 1.58103 -1.35616 2.60616L2.35616 -1.10616ZM11 11.25L9.14384 13.1062C10.169 14.1313 11.831 14.1313 12.8562 13.1062L11 11.25ZM23.3562 2.60616C24.3813 1.58103 24.3813 -0.0810291 23.3562 -1.10616C22.331 -2.13128 20.669 -2.13128 19.6438 -1.10616L23.3562 2.60616ZM-1.35616 2.60616L9.14384 13.1062L12.8562 9.39384L2.35616 -1.10616L-1.35616 2.60616ZM12.8562 13.1062L23.3562 2.60616L19.6438 -1.10616L9.14384 9.39384L12.8562 13.1062Z" fill="#DD5C35" mask="url(#path-1-inside-1_5_1204)"/>
</g>
</g>
</svg>
