<svg width="51" height="42" viewBox="0 0 51 42" fill="none" xmlns="http://www.w3.org/2000/svg">
<path d="M3.16605 20.1588C5.3221 17.5599 8.47176 14.0368 10.9766 11.8143C14.0501 9.09332 16.5335 7.51166 19.8559 4.78283C21.1302 3.73553 22.3798 3.04774 23.762 2.13783C25.0186 1.31302 26.4022 0.674399 27.8466 0.259921C29.1563 -0.120066 30.8334 -0.194876 31.6019 0.926449C32.0115 1.52697 32.0337 2.29585 32.0538 3.02335C32.1562 6.70222 32.6208 10.3635 33.4375 13.9514C34.184 17.2333 36.9681 13.6502 37.9513 12.6966C39.175 11.5121 45.3015 6.65875 47.3903 7.95696C47.824 8.2242 48.0817 8.76304 48.0884 9.64959C48.0914 10.6621 47.3842 11.5247 46.9378 12.4451C46.3007 13.7598 44.9442 15.8975 44.5191 17.728C43.5392 21.9499 49.1183 24.5364 50.0405 28.1891C50.1103 28.4638 50.1501 28.7752 50 29.0161C49.8499 29.257 49.5486 29.3526 49.2705 29.4022C48.2684 29.5759 47.2498 29.3347 46.2722 29.0601C43.7299 28.3494 37.3988 25.0564 34.8209 26.1954C33.2274 28.4381 35.9232 34.8708 35.5481 38.8856C35.2851 41.6845 28.8105 41.3049 25.2658 41.1178C22.485 40.9718 19.7719 40.2394 17.1003 39.4473C12.4943 38.0762 7.80882 36.406 4.25835 33.1702C2.55182 31.6158 1.10632 29.6232 0.77637 27.3322C0.407833 24.7661 1.51415 22.1613 3.16695 20.1639L3.16605 20.1588ZM16.1871 22.7851C17.0568 22.6299 17.6015 21.5875 17.4004 20.4589C17.1993 19.3302 16.3282 18.5406 15.4584 18.6958C14.5887 18.8511 14.044 19.8935 14.2451 21.0221C14.4462 22.1507 15.3173 22.9403 16.1871 22.7851Z" fill="#1392DA"/>
</svg>
