<svg width="92" height="60" viewBox="0 0 92 60" fill="none" xmlns="http://www.w3.org/2000/svg">
<rect width="92" height="60" fill="#F5F5F5"/>
<g id="Home Page" clip-path="url(#clip0_0_1)">
<rect width="1440" height="7123" transform="translate(-1153 -2921)" fill="white"/>
<g id="Frame 57">
<rect width="1440" height="6869" transform="translate(-1153 -2667)" fill="#EEEEE4"/>
<g id="Frame 55">
<rect id="Rectangle 12" x="-1153" y="-680" width="1440" height="848" rx="8" fill="#EEEEE4"/>
<path id="Vector" d="M49.5739 12.6387C41.0261 11.3799 32.8202 10.1916 24.1618 11.8532C15.6542 13.4745 7.31752 17.9961 2.98327 25.4985C-1.38115 33.0713 -0.91856 43.1618 4.11963 50.3016C9.15781 57.4415 18.5101 61.2379 27.0982 59.6368C31.4726 59.6368 36.1086 53.6248 35.1432 49.4356C34.0772 44.7629 26.6959 42.4468 22.9148 45.1456C22.603 45.3672 22.2812 45.7599 22.4522 46.1023C22.5628 46.3138 22.8142 46.4044 23.0455 46.485C24.212 46.8676 25.3383 47.3913 26.3842 48.0358C26.6758 48.2171 26.9674 48.4184 27.1485 48.7105C27.5507 49.3852 27.1384 50.3217 26.4546 50.7245C25.7708 51.1274 24.9361 51.1072 24.1517 50.9965C23.126 50.8454 22.0801 50.5231 21.2957 49.8484C19.1035 47.9452 19.918 44.048 22.2611 42.6885C25.8512 40.5938 36.4606 40.5536 37.8483 45.77C38.0897 46.6562 37.8785 47.633 38.1902 48.5091C38.5422 49.4859 39.4975 50.1304 40.4931 50.3922C41.4887 50.6541 42.5446 50.5735 43.5703 50.493C44.1033 50.4527 44.6966 50.3822 45.0285 49.9592C45.2598 49.6672 45.3101 49.2744 45.3201 48.9119C45.3503 47.7135 45.0486 46.495 45.3603 45.337C46.2553 41.9836 55.1954 43.0611 57.1664 44.9643C58.8558 46.5957 58.5139 49.4859 60.1229 51.2281C61.1889 52.3861 62.9286 52.5674 64.4974 52.6581C65.1812 52.6983 65.9656 52.7084 66.4282 52.1948C66.9511 51.6208 66.7701 50.7145 66.5891 49.9491C66.207 48.348 65.9656 46.7065 65.8852 45.065C65.5131 38.1367 79.0589 38.9423 83.8155 38.1971C85.7865 37.895 87.848 37.5627 89.4269 36.3542C93.56 33.1821 91.9409 26.6868 89.9196 21.8832C87.7173 16.6366 85.4547 11.2893 81.7238 6.97919C77.9929 2.67917 72.4921 -0.482894 66.8305 0.0609022C65.9354 0.141465 64.9499 0.383144 64.4672 1.13842C64.0046 1.85341 64.1454 2.78995 64.1857 3.64593C64.608 12.4776 56.1608 13.6155 49.5739 12.6387ZM73.548 16.2237C75.3984 16.2237 76.8968 17.7242 76.8968 19.5771C76.8968 21.4301 75.3984 22.9305 73.548 22.9305C71.6977 22.9305 70.1993 21.4301 70.1993 19.5771C70.1993 17.7242 71.6977 16.2237 73.548 16.2237Z" fill="#D1CB53"/>
</g>
</g>
</g>
<defs>
<clipPath id="clip0_0_1">
<rect width="1440" height="7123" fill="white" transform="translate(-1153 -2921)"/>
</clipPath>
</defs>
</svg>
