<svg width="89" height="76" viewBox="0 0 89 76" fill="none" xmlns="http://www.w3.org/2000/svg">
<path id="Vector" d="M57.77 27.361C52.7114 26.0334 50.8907 25.0356 51.4015 19.6675C51.7722 15.8002 51.7393 11.8916 51.3026 8.02424C48.3614 10.1352 42.9073 18.9666 39.6613 16.5341C38.2277 15.4538 31.0106 -0.139242 30.7882 0.000939436C20.1685 6.95227 21.5361 17.738 16.4198 27.4022C10.4138 38.7569 4.39131 49.3777 0.601496 61.7878C0.082456 63.47 -0.378916 65.3831 0.469673 66.925C1.18644 68.2362 2.65294 68.9123 4.03704 69.4731C14.9781 73.8682 26.883 75.8389 38.6562 75.2205C39.8672 75.1545 41.1195 75.0556 42.1741 74.4536C47.5375 71.3861 42.4212 60.0809 48.2955 58.1926C49.6301 57.7638 51.0719 58.1101 52.4395 58.4235C59.8709 60.1221 58.6598 60.6581 66.2724 60.2706C71.7676 59.9902 78.062 58.5966 80.5501 53.6821C82.3708 50.0951 81.8353 45.1228 85.0814 42.7397C85.9382 42.113 86.9927 41.7419 87.726 40.9668C95.9235 32.2014 60.4723 28.0784 57.77 27.3692V27.361ZM39.0516 35.442C37.5357 35.442 36.3081 34.2134 36.3081 32.6961C36.3081 31.1789 37.5357 29.9502 39.0516 29.9502C40.5675 29.9502 41.7951 31.1789 41.7951 32.6961C41.7951 34.2134 40.5675 35.442 39.0516 35.442Z" fill="#F9BDB2"/>
</svg>
