<svg width="127" height="84" viewBox="0 0 127 84" fill="none" xmlns="http://www.w3.org/2000/svg">
<path id="Vector" d="M74.1024 51.3293C75.7056 46.2801 77.4184 41.2703 78.8796 36.175C82.78 22.5826 92.9358 14.6836 105.068 15.9396C118.337 17.3123 126.853 25.4673 126.929 40.2165C126.996 52.43 124.338 64.6873 122.593 76.8805C121.358 85.4573 115.192 82.8808 109.858 82.067C103.768 81.1307 102.21 77.8711 103.488 71.9467C105.182 64.0873 106.532 56.0982 107.138 48.0902C107.455 43.8533 105.892 39.473 105.184 35.1509L101.832 34.6786C99.8172 37.7654 97.3961 40.659 95.8968 43.9784C94.4105 47.2753 93.9105 51.0113 92.877 54.5195C88.8429 68.3116 78.831 75.9204 67.6041 73.7817C56.2319 71.6131 49.0099 59.869 50.3469 45.8574C51.0126 38.9057 51.5637 31.9389 52.1713 24.9836L47.5487 23.5756C45.3266 28.3625 42.9434 33.074 40.9228 37.9445C38.0123 44.9721 36.8612 53.4233 32.133 58.7793C28.2733 63.1443 19.7222 66.5585 14.2869 65.4207C8.90002 64.2928 1.05345 57.1347 0.826203 52.3141C0.106159 36.9353 1.64655 21.2818 4.31376 6.07956C4.77488 3.4721 15.0176 2.58735 22.9323 0.262666C20.8252 16.6665 19.1804 29.4359 17.5339 42.2135C18.5743 42.5123 19.6131 42.8191 20.6535 43.1179C24.0471 35.2555 27.0831 27.2098 30.9279 19.5668C37.6431 6.23496 45.1554 1.69724 55.2874 4.00579C66.5199 6.56657 71.9928 15.1211 71.6703 30.2933C71.5307 37.0588 70.7967 43.8111 70.3389 50.5699C71.5896 50.8279 72.842 51.0778 74.0863 51.326L74.1024 51.3293Z" fill="#036147"/>
</svg>
