<svg width="80" height="77" viewBox="0 0 80 77" fill="none" xmlns="http://www.w3.org/2000/svg">
<path id="Vector" d="M52.1848 7.0315C46.1082 1.64611 37.4289 -0.657831 29.4854 0.989943C22.9319 2.34961 16.2811 7.67145 16.918 14.3392C11.3463 15.3838 5.84531 16.8193 0.475005 18.6465C4.10953 23.2281 9.3128 26.5344 15.0037 27.874C15.833 42.3193 20.1301 56.5585 27.4467 69.0473C28.954 71.6135 30.7139 74.2313 33.4078 75.4968C36.2307 76.83 39.5331 76.4208 42.6034 75.8776C49.5509 74.6511 56.3988 72.8623 63.0616 70.5426C70.8626 67.8232 81.4338 61.8834 78.9272 52.0296C76.4211 42.2099 67.6044 31.3793 62.865 22.4243C59.9251 16.8706 56.8911 11.1885 52.1848 7.0315ZM33.1043 16.8031C32.2529 17.0319 31.0651 15.3703 30.452 13.0846C29.8389 10.799 30.0356 8.76535 30.887 8.53658C31.7384 8.30781 32.9262 9.96941 33.5393 12.2551C34.1524 14.5407 33.9557 16.5744 33.1043 16.8031Z" fill="#1392DA"/>
</svg>
