<svg width="119" height="158" viewBox="0 0 119 158" fill="none" xmlns="http://www.w3.org/2000/svg">
<path id="Vector" d="M74.0589 89.2713C65.7381 78.3519 57.8764 66.9224 48.9937 56.6562C38.2454 44.2416 35.2784 29.0957 34.6285 12.6717C34.4546 8.12297 34.6335 3.97147 39.093 1.73126C43.584 -0.517771 46.8853 1.54359 49.8343 5.00078C58.1697 14.7811 67.6704 23.682 74.3502 34.7841C81.4465 46.5804 86.3296 60.2553 91.303 73.5329C100.611 98.3592 109.375 123.452 118.099 148.557C118.97 151.06 118.052 154.378 117.963 157.312C115.588 156.957 112.374 157.599 110.976 156.073C99.6199 143.628 86.1861 147.636 73.0904 149.404C61.1709 151.004 49.2356 153.582 37.5652 148.36C33.9214 146.728 30.2884 144.407 27.353 141.48C21.4724 135.619 22.8643 128.591 30.6046 126.72C38.5263 124.799 46.7721 123.53 54.8424 123.742C65.419 124.024 75.9587 126.043 86.5136 127.276C87.8341 127.431 89.1874 127.31 90.7487 126.405C88.183 125.006 85.665 123.479 83.0534 122.216C67.2009 114.607 50.8853 108.072 35.5992 99.2067C21.5742 91.0762 9.20893 79.696 1.66563 63.208C0.327115 60.2825 -0.369111 54.8976 1.05281 52.9544C2.57772 50.8679 7.28453 50.2467 10.0255 51.1773C16.8229 53.4809 23.6554 56.2994 29.8256 60.2379C41.6713 67.7957 53.0822 76.2478 64.6379 84.4018C67.5454 86.4589 70.3081 88.776 73.1383 90.9788L74.0452 89.2847L74.0589 89.2713Z" fill="#004322"/>
</svg>
