<svg width="126" height="81" viewBox="0 0 126 81" fill="none" xmlns="http://www.w3.org/2000/svg">
<path id="Vector" d="M7.95036 0.017334C15.3804 16.6568 21.4105 30.1403 27.4305 43.6339C28.2805 43.5934 29.1304 43.553 29.9904 43.5024C32.3504 30.12 34.7104 16.7276 37.0704 3.34522L42.4804 3.22384C45.4204 14.8158 48.3704 26.4179 52.3404 42.0762C54.8504 29.149 56.1704 19.9442 58.6204 11.0732C59.5204 7.806 63.1104 5.29744 65.4704 2.44497C67.5004 5.48963 70.5704 8.27131 71.3704 11.6194C73.4704 20.4297 74.5804 29.4828 78.2104 38.4044C80.2604 29.058 81.8404 19.5598 84.6104 10.4359C85.5504 7.3407 89.4903 5.16595 92.0603 2.57647C93.8303 5.3986 96.5305 8.02854 97.1805 11.0934C98.8205 18.872 99.5303 26.8529 102.31 34.7326C104.34 26.8529 105.97 18.8416 108.58 11.1642C109.66 7.99819 112.82 5.56043 115.03 2.78888C116.7 5.61101 119.49 8.30165 119.86 11.2957C121.98 28.1881 122.98 45.2422 125.44 62.084C127.24 74.3638 121.52 78.4402 110.96 78.5919C80.4204 79.0269 49.8804 79.3 19.3404 79.6237C15.3704 79.6641 11.1204 80.5947 7.51042 79.4416C4.49042 78.4806 -0.0495905 75.0314 0.000409489 72.7656C0.470409 51.3012 1.73037 29.8469 2.96037 8.4028C3.05037 6.87541 4.66035 5.42895 7.94035 0.017334H7.95036Z" fill="#004322"/>
</svg>
