<svg width="82" height="79" viewBox="0 0 82 79" fill="none" xmlns="http://www.w3.org/2000/svg">
<path id="Vector" d="M55.5949 35.5978C61.0077 36.2904 65.2425 36.7027 69.436 37.4036C73.4317 38.0716 77.3781 39.0528 81.3409 39.8939L81.0608 43.184H59.4259C63.051 51.9165 75.8127 53.4915 72.9539 67.8312C62.9438 60.3109 55.0017 54.349 45.7331 47.3895C46.5982 58.4885 47.3562 68.2682 48.1141 78.0562C46.3099 78.3118 44.4974 78.5674 42.6931 78.8313L36.9507 49.7148C32.2711 56.9383 29.2804 62.529 25.3176 67.3034C22.7965 70.3379 18.8255 72.1686 15.5053 74.5351C16.5104 70.4369 16.7246 65.9016 18.6854 62.3311C21.8244 56.6414 26.1332 51.5949 31.8262 43.6541C20.4073 49.6736 11.5507 54.3408 2.69405 58.9998L0.749714 55.7921C5.66823 45.8227 18.3064 45.897 27.6821 38.3272C17.1283 37.5768 8.56827 36.9666 0 36.3482L0.181253 32.3736H26.0756C18.3971 25.2821 12.1521 19.5182 5.90715 13.746C6.81341 12.3359 7.71969 10.9259 8.62595 9.52409C16.2056 13.3832 23.777 17.2423 32.3864 21.6291C33.2185 14.5211 34.0589 7.2647 34.9075 0.016508C36.1845 0.016508 37.4532 0.00824595 38.7302 0C39.9248 8.30367 41.1112 16.5991 42.553 26.6097C48.3366 18.1411 53.4611 10.6455 58.5856 3.14996L62.2848 4.98056L51.0801 28.6794C59.4259 24.9522 66.4618 21.8105 73.4977 18.6688L75.8622 22.2641C69.576 26.4035 63.2899 30.543 55.5949 35.6143V35.5978Z" fill="#527636"/>
</svg>
