<svg width="80" height="67" viewBox="0 0 80 67" fill="none" xmlns="http://www.w3.org/2000/svg">
<path id="Vector" d="M4.01031 33.1468C7.46861 28.9781 12.5207 23.3271 16.5385 19.7621C21.4683 15.3977 25.4516 12.8607 30.7809 8.48366C32.8248 6.80379 34.8292 5.70057 37.0463 4.24107C39.0617 2.91808 41.281 1.89374 43.5979 1.22891C45.6986 0.619415 48.3887 0.499419 49.6214 2.29802C50.2784 3.26126 50.314 4.49454 50.3462 5.66145C50.5105 11.5624 51.2557 17.435 52.5656 23.1901C53.7631 28.4543 58.2289 22.7069 59.8058 21.1774C61.7687 19.2774 71.5957 11.4926 74.9459 13.575C75.6416 14.0036 76.055 14.8679 76.0657 16.2899C76.0706 17.914 74.9362 19.2975 74.2202 20.7739C73.1983 22.8828 71.0225 26.3116 70.3406 29.2477C68.7688 36.0197 77.7177 40.1684 79.1969 46.0273C79.3089 46.468 79.3728 46.9674 79.132 47.3538C78.8912 47.7402 78.408 47.8935 77.9619 47.9732C76.3545 48.2517 74.7206 47.8649 73.1525 47.4244C69.0747 46.2844 58.9196 41.0025 54.7846 42.8295C52.2287 46.4267 56.5527 56.7448 55.9511 63.1845C55.5292 67.674 45.1439 67.0651 39.4583 66.7649C34.9979 66.5308 30.6461 65.356 26.3609 64.0855C18.9728 61.8863 11.4573 59.2072 5.76236 54.0171C3.02508 51.5238 0.706508 48.3276 0.177263 44.6528C-0.413861 40.5368 1.36066 36.3587 4.01176 33.1549L4.01031 33.1468ZM24.896 37.3593C26.2911 37.1103 27.1648 35.4383 26.8422 33.628C26.5197 31.8177 25.1223 30.5511 23.7273 30.8001C22.3322 31.0491 21.4585 32.7211 21.7811 34.5314C22.1037 36.3417 23.501 37.6083 24.896 37.3593Z" fill="#1392DA"/>
</svg>
