<svg width="102" height="113" viewBox="0 0 102 113" fill="none" xmlns="http://www.w3.org/2000/svg">
<path id="Vector" d="M95.9493 5.92426C87.3173 13.5065 93.1608 22.1145 94.6942 30.3908C97.4238 45.1374 102.871 59.516 100.435 74.9065C99.7988 78.8954 99.3194 83.1523 97.4985 86.6213C96.3764 88.7592 92.859 90.7438 90.4246 90.734C88.4747 90.7283 85.0173 87.761 84.8384 85.8609C83.6843 73.765 83.1533 61.6069 82.6217 49.4604C82.4236 44.8646 82.893 40.2447 82.836 35.6353C82.8172 33.8689 82.173 32.1121 81.8147 30.3575L80.4135 30.3545C78.0544 38.7661 74.9972 47.0535 73.4633 55.6095C69.9388 75.2851 62.733 93.1292 49.8281 108.506C48.8164 109.716 47.6333 111.383 46.3145 111.625C43.2395 112.185 39.6582 112.891 37.013 111.785C35.5487 111.17 34.5023 106.767 35.0767 104.527C37.3741 95.5681 40.3432 86.7778 43.1395 77.9521C45.2586 71.2482 47.0719 64.4064 49.7926 57.9543C52.1426 52.3942 55.5094 47.2491 58.5903 42.0141C59.8667 39.8401 61.5696 37.9176 62.2922 35.2204C54.2154 40.0764 46.4103 45.4829 37.9846 49.637C29.6381 53.7438 20.7351 56.7721 11.942 59.9014C7.84749 61.3612 2.63144 58.8338 1.13394 55.2182C-1.2203 49.5389 3.35303 46.2944 6.50519 43.6768C19.2621 33.088 34.2243 26.3506 49.8005 21.0465C57.1431 18.5479 64.7228 16.7612 72.0754 14.2866C76.1937 12.9045 80.1459 11.3063 82.3622 6.67217C86.0038 -0.94388 89.1987 -1.03954 95.9385 5.91189L95.9493 5.92426Z" fill="#D1CB53"/>
</svg>
