<svg width="45" height="44" viewBox="0 0 45 44" fill="none" xmlns="http://www.w3.org/2000/svg">
<path id="Vector" d="M14.7597 18.3878C11.8945 14.9776 9.38744 12.3758 7.35994 9.43975C5.71487 7.05685 3.69954 3.99312 6.17017 1.34883C8.6226 -1.27115 11.8156 0.485631 14.3469 1.92024C16.9997 3.42171 19.4461 5.33654 21.8257 7.26961C24.187 9.18444 26.342 9.21484 28.6851 7.33648C30.5002 5.87756 32.3395 4.43079 34.2881 3.16032C35.8724 2.12692 37.56 0.990174 39.3568 0.613286C40.9351 0.285029 43.3754 0.364054 44.2252 1.33059C45.0265 2.24241 44.7838 4.83808 44.0553 6.16934C42.7563 8.54009 40.9047 10.6798 38.9865 12.6251C35.8906 15.7617 35.4354 19.099 37.1472 23.0624C38.9926 27.3298 40.8198 31.6336 42.2342 36.0529C43.0051 38.454 44.0492 41.6576 41.2204 43.3232C38.5859 44.8733 36.3216 42.6241 34.5976 40.8552C32.0238 38.2109 29.7778 35.2383 27.4467 32.363C24.8668 29.1777 23.9685 29.0379 20.6844 31.5789C17.9224 33.7186 15.209 35.9252 12.4044 38.0103C11.0508 39.0133 9.60601 39.9433 8.08235 40.6424C5.62993 41.767 2.50367 43.8399 0.621856 41.1713C-0.476879 39.609 0.136257 35.9192 1.25927 33.9071C3.39604 30.0713 6.30977 26.6368 9.18105 23.2691C10.7958 21.3725 12.9569 19.9379 14.7658 18.3878H14.7597Z" fill="#FEC426"/>
</svg>
