<svg width="135" height="81" viewBox="0 0 135 81" fill="none" xmlns="http://www.w3.org/2000/svg">
<g id="Group">
<path id="Vector" d="M125.96 53.1628C127.49 57.6056 127.265 66.8933 122.255 67.8099C117.047 68.7634 115.879 62.7329 115.114 60.7293C113.171 55.6487 110.4 50.6374 107.479 45.778C102.932 38.1992 96.4494 31.3462 86.5735 26.064C69.9353 17.1676 51.8246 19.7782 40.9785 32.4381C32.7248 42.0758 32.0069 52.2821 31.719 62.5985C31.6267 65.7489 32.1442 68.8842 31.658 72.0483C31.3816 73.8894 29.8346 79.9207 25.394 80.128C25.0957 80.1385 24.8243 80.0409 24.5882 79.9394C19.9581 78.0117 15.9175 64.9153 15.7308 61.0145C14.9466 44.5443 19.2859 25.0942 40.6626 13.204C56.4481 4.42079 78.3071 4.20386 95.0171 12.7918C109.777 20.3792 117.371 30.8201 122.183 42.2758C123.582 45.6139 124.553 49.0444 125.958 53.1555L125.96 53.1628Z" fill="#036147"/>
<path id="Vector_2" d="M41.1538 69.5859C40.2977 60.9211 41.0127 51.6522 46.5262 42.6642C50.3675 36.4093 55.6707 30.47 67.4276 29.4928C79.4325 28.4883 86.3749 33.4194 91.6481 39.1318C95.038 42.8127 98.2709 46.6773 99.8242 50.9009C100.625 53.0743 102.235 61.7694 97.5203 62.7123C90.8657 64.0427 84.563 51.3034 82.2797 48.7713C80.8438 47.1746 79.6201 45.2445 77.6847 43.8087C75.4518 42.1485 73.6366 39.6027 66.7397 40.9901C63.6509 41.6102 59.7337 45.2033 58.7626 47.5114C56.1928 53.6035 55.0619 59.8926 53.3111 66.0988C52.6485 68.4409 52.1891 70.8968 50.6705 73.1215C50.0329 74.054 49.137 75.4537 47.5015 75.8531C42.3071 77.1211 41.3427 71.5317 41.1538 69.5859Z" fill="#FA6C28"/>
<path id="Vector_3" d="M69.9205 58.1037C67.2573 57.9571 66.6456 65.6092 62.2707 65.4235C57.9329 65.2412 60.1467 59.7164 60.6243 58.0878C61.5977 54.7377 63.3875 50.6841 69.8156 50.3107C73.8665 50.0774 77.3231 53.4632 78.1013 57.3633C78.8824 61.2782 76.8698 62.5982 74.6378 62.0632C73.2168 61.7193 71.4605 58.192 69.922 58.1111L69.9205 58.1037Z" fill="#F9BDB2"/>
</g>
</svg>
