<svg width="81" height="76" viewBox="0 0 81 76" fill="none" xmlns="http://www.w3.org/2000/svg">
<path id="Vector" d="M13.0136 72.4112C26.1107 79.045 40.5504 74.6082 54.1094 71.3469C64.4551 68.8553 75.4205 63.0893 79.4326 51.7739C80.6002 48.4675 80.9045 44.8721 80.778 41.3443C80.7164 39.59 80.5517 37.8269 80.175 36.1167C79.1356 31.3427 76.4695 28.221 73.6466 24.5784C71.4472 21.7472 69.0957 21.0788 66.4318 18.8549C66.0542 18.5465 65.8579 18.0631 65.6666 17.6084C64.9641 15.9345 55.2625 -0.182129 55.0786 0.0821611C51.6398 4.94451 48.2027 9.81639 44.7639 14.6787C43.0139 17.1457 42.5166 18.4014 39.8637 18.9489C37.462 19.4554 34.8044 19.1945 32.3556 19.5921C29.6914 20.0235 27.0834 20.7199 24.4957 21.5306C22.764 22.0691 19.1584 24.2706 17.4486 23.9953C15.8241 23.7323 14.3856 21.2897 12.9656 20.0969C11.4027 18.7751 9.68308 17.6628 7.99022 16.545L1.70111 12.4007C0.817074 15.4325 0.548333 19.0206 0.590427 22.6445C0.633271 26.3768 0.99417 30.1334 1.35517 33.3175C2.0178 39.1944 2.08071 45.1238 2.14915 51.0323C2.21872 56.6345 2.09296 62.0198 5.60545 66.638C7.55317 69.1945 10.2425 70.9888 13.0314 72.4076L13.0136 72.4112ZM56.6107 48.5324C58.4635 48.1569 60.2204 49.2715 60.5309 51.0248C60.8415 52.778 59.5875 54.5029 57.7347 54.8784C55.8819 55.2539 54.125 54.1393 53.8144 52.386C53.5039 50.6328 54.7578 48.9079 56.6107 48.5324ZM27.9274 54.3458C29.7803 53.9702 31.5372 55.0849 31.8477 56.8381C32.1583 58.5914 30.9043 60.3162 29.0515 60.6918C27.1987 61.0673 25.4418 59.9526 25.1312 58.1994C24.8207 56.4461 26.0746 54.7213 27.9274 54.3458Z" fill="#F9BDB2"/>
</svg>
