<svg width="99" height="64" viewBox="0 0 99 64" fill="none" xmlns="http://www.w3.org/2000/svg">
<path id="Vector" d="M60.3349 0.634107C71.8141 0.162409 84.7419 1.4971 92.1452 10.2903C96.7294 15.731 98.3081 23.1742 98.1488 30.287C97.9292 40.4639 98 52.3564 87.2642 55.9731C78.0395 59.0807 68.6025 61.5844 59.0446 63.4536C57.0067 63.8533 54.5528 64.0878 53.1714 62.5363C52.5043 61.7896 52.252 60.7644 52.0525 59.7861C50.8189 53.8365 50.6457 47.6591 51.5562 41.6533C51.8741 39.52 52.3191 37.27 51.5099 35.2759C50.1789 32.0051 46.2222 30.877 42.7873 30.0636C28.008 26.5493 13.6557 21.2258 0.165541 14.2334C19.18 6.12548 39.6786 1.49586 60.3294 0.645172L60.3349 0.634107ZM67.2399 17.1538C68.7677 16.6392 69.5884 14.9841 69.0742 13.455C68.56 11.9259 66.9064 11.1045 65.3787 11.6191C63.8509 12.1338 63.0302 13.7888 63.5444 15.3179C64.0586 16.847 65.7122 17.6685 67.2399 17.1538Z" fill="#036147"/>
</svg>
