<svg width="68" height="64" viewBox="0 0 68 64" fill="none" xmlns="http://www.w3.org/2000/svg">
<path id="Vector" d="M32.61 63.1981C31.6999 57.2844 30.7945 51.3707 29.7551 44.5977C24.2993 49.0791 19.3747 53.1217 14.4502 57.1689C13.9236 56.8455 13.3969 56.5175 12.8657 56.1941C15.5451 50.8209 18.2291 45.4524 21.2411 39.4139C14.8891 40.9155 9.24388 42.2553 3.59869 43.5905C3.27993 43.0638 2.9658 42.5371 2.64704 42.0104C7.68706 38.2266 12.7317 34.4427 18.3261 30.2431C11.9371 28.0809 5.96857 26.0665 0 24.0475C0.0831534 23.4238 0.166292 22.7955 0.244826 22.1718C6.3566 21.8345 12.4638 21.4972 19.1299 21.1276C16.6076 16.2627 14.3116 11.8367 12.0157 7.40599L13.494 5.91371C17.7579 9.2494 22.0218 12.5897 26.8354 16.3597C27.6531 10.6354 28.4015 5.4055 29.1499 0.170943L30.8083 0C32.7856 5.18373 34.7674 10.3628 37.0125 16.2442C41.3504 10.4922 45.1893 5.40088 49.0282 0.304925C49.5641 0.56365 50.1046 0.817755 50.6404 1.07648C49.0605 6.75456 47.476 12.4326 45.6743 18.8915C52.6084 16.1841 58.9188 13.7216 66.7584 10.6632C60.2123 16.8956 54.9182 21.9454 49.6195 26.9905C50.1092 27.5911 50.5989 28.1917 51.0885 28.7924H67.091C67.248 29.1943 67.4005 29.5963 67.5575 29.9982C61.9031 32.8765 56.2487 35.7594 50.585 38.6424C53.2598 43.9693 55.7544 48.9498 58.2536 53.9302C57.7131 54.4338 57.1726 54.942 56.6321 55.4456C51.8184 52.0499 47.0094 48.6541 41.9648 45.0966C39.5071 51.2829 37.0772 57.3861 34.6519 63.4938C33.9682 63.3968 33.2845 63.2998 32.6054 63.2027L32.61 63.1981Z" fill="#FA6C28"/>
</svg>
