<svg width="44" height="44" viewBox="0 0 44 44" fill="none" xmlns="http://www.w3.org/2000/svg">
<g id="Group">
<path id="Vector" d="M22 44C9.84971 44 0 34.1503 0 22C0 9.84971 9.84971 0 22 0C34.1503 0 44 9.84971 44 22C44 34.1503 34.1503 44 22 44Z" fill="#D1CB53"/>
<g id="Group_2">
<path id="Vector_2" d="M21.9999 12.1158C25.2253 12.1158 25.6068 12.1274 26.8785 12.1852C28.0577 12.243 28.6935 12.4395 29.1212 12.6013C29.6877 12.821 30.0808 13.0869 30.5085 13.5031C30.9363 13.9308 31.1906 14.3239 31.4103 14.8904C31.5721 15.3181 31.7686 15.9539 31.8265 17.1331C31.8843 18.4048 31.8958 18.7863 31.8958 22.0117C31.8958 25.2372 31.8843 25.6187 31.8265 26.8904C31.7686 28.0695 31.5721 28.7054 31.4103 29.1331C31.1906 29.6996 30.9247 30.0927 30.5085 30.5204C30.0923 30.9366 29.6877 31.2025 29.1212 31.4221C28.6935 31.584 28.0577 31.7805 26.8785 31.8383C25.6068 31.8961 25.2253 31.9077 21.9999 31.9077C18.7744 31.9077 18.3929 31.8961 17.1212 31.8383C15.9421 31.7805 15.3062 31.584 14.8785 31.4221C14.312 31.2025 13.9189 30.9366 13.4912 30.5204C13.075 30.0927 12.8091 29.6996 12.5895 29.1331C12.4276 28.7054 12.2311 28.0695 12.1733 26.8904C12.1155 25.6187 12.1039 25.2372 12.1039 22.0117C12.1039 18.7863 12.1155 18.4048 12.1733 17.1331C12.2311 15.9539 12.4276 15.3181 12.5895 14.8904C12.8091 14.3239 13.075 13.9308 13.4912 13.5031C13.9189 13.0753 14.312 12.821 14.8785 12.6013C15.3062 12.4395 15.9421 12.243 17.1212 12.1852C18.3929 12.1274 18.7744 12.1158 21.9999 12.1158ZM21.9999 9.94238C18.7282 9.94238 18.312 9.95394 17.0288 10.0117C15.7455 10.0695 14.8669 10.2776 14.1039 10.5782C13.3062 10.8904 12.6357 11.295 11.9652 11.9655C11.2947 12.636 10.8785 13.3065 10.5779 14.1042C10.2773 14.8672 10.0808 15.7458 10.023 17.0291C9.96518 18.3123 9.95361 18.7285 9.95361 22.0002C9.95361 25.2719 9.96518 25.688 10.023 26.9713C10.0808 28.2545 10.2889 29.1331 10.5779 29.8961C10.89 30.6938 11.2947 31.3643 11.9652 32.0349C12.6357 32.7054 13.3062 33.1216 14.1039 33.4221C14.8669 33.7227 15.7455 33.9193 17.0288 33.9886C18.312 34.0464 18.7282 34.058 21.9999 34.058C25.2715 34.058 25.6877 34.0464 26.971 33.9886C28.2542 33.9308 29.1328 33.7227 29.8958 33.4221C30.6935 33.11 31.364 32.7054 32.0345 32.0349C32.7051 31.3643 33.1212 30.6938 33.4218 29.8961C33.7224 29.1331 33.9189 28.2545 33.9883 26.9713C34.0461 25.688 34.0577 25.2719 34.0577 22.0002C34.0577 18.7285 34.0461 18.3123 33.9883 17.0291C33.9305 15.7458 33.7224 14.8672 33.4218 14.1042C33.1097 13.3065 32.7051 12.636 32.0345 11.9655C31.364 11.295 30.6935 10.8788 29.8958 10.5782C29.1328 10.2776 28.2542 10.0811 26.971 10.0117C25.6877 9.95394 25.2715 9.94238 21.9999 9.94238Z" fill="#004322"/>
<path id="Vector_3" d="M21.9998 15.8032C18.5778 15.8032 15.8032 18.5778 15.8032 21.9998C15.8032 25.4217 18.5778 28.1963 21.9998 28.1963C25.4217 28.1963 28.1963 25.4217 28.1963 21.9998C28.1963 18.5778 25.4217 15.8032 21.9998 15.8032ZM21.9998 26.0229C19.7801 26.0229 17.9766 24.2194 17.9766 21.9998C17.9766 19.7801 19.7801 17.9766 21.9998 17.9766C24.2194 17.9766 26.0229 19.7801 26.0229 21.9998C26.0229 24.2194 24.2194 26.0229 21.9998 26.0229Z" fill="#004322"/>
<path id="Vector_4" d="M29.896 15.5608C29.896 16.3585 29.2486 17.0059 28.4509 17.0059C27.6533 17.0059 27.0059 16.3585 27.0059 15.5608C27.0059 14.7631 27.6533 14.1157 28.4509 14.1157C29.2486 14.1157 29.896 14.7631 29.896 15.5608Z" fill="#004322"/>
</g>
</g>
</svg>
