<svg width="44" height="44" viewBox="0 0 44 44" fill="none" xmlns="http://www.w3.org/2000/svg">
<path d="M44 22C44 9.84974 34.1503 0 22 0C9.84974 0 0 9.84974 0 22C0 34.1503 9.84974 44 22 44C34.1503 44 44 34.1503 44 22Z" fill="#D1CB53"/>
<path d="M21.7886 30.5962C20.517 31.8678 18.9849 32.5033 17.1924 32.5027C15.3999 32.5033 13.8678 31.8678 12.5962 30.5962C11.3246 29.3246 10.6888 27.7922 10.6888 25.9991C10.6888 24.2072 11.3246 22.6754 12.5962 21.4038L15.3539 18.6461C15.6144 18.3856 15.9208 18.2551 16.2731 18.2545C16.6255 18.2551 16.9319 18.3856 17.1924 18.6461C17.4528 18.9065 17.5831 19.2126 17.5831 19.5644C17.5831 19.9174 17.4528 20.2241 17.1924 20.4846L14.4347 23.2423C13.6686 24.0083 13.2856 24.9276 13.2856 26C13.2856 27.0724 13.6686 27.9917 14.4347 28.7577C15.2007 29.5237 16.1199 29.9068 17.1924 29.9068C18.2648 29.9068 19.1841 29.5237 19.9501 28.7577L22.7078 26C22.9683 25.7395 23.2747 25.609 23.6271 25.6084C23.9794 25.609 24.2858 25.7395 24.5463 26C24.8067 26.2605 24.937 26.5666 24.937 26.9183C24.937 27.2713 24.8067 27.578 24.5463 27.8385L21.7886 30.5962ZM19.9501 25.0808C19.6897 25.3412 19.3832 25.4711 19.0309 25.4705C18.6785 25.4711 18.3721 25.3412 18.1116 25.0808C17.8512 24.8203 17.7209 24.5136 17.7209 24.1606C17.7209 23.8088 17.8512 23.5027 18.1116 23.2423L23.6271 17.7269C23.8875 17.4664 24.1939 17.3359 24.5463 17.3353C24.8987 17.3359 25.2051 17.4664 25.4655 17.7269C25.726 17.9873 25.8562 18.2934 25.8562 18.6452C25.8562 18.9982 25.726 19.3049 25.4655 19.5653L19.9501 25.0808ZM28.2233 24.1615C27.9628 24.422 27.6564 24.5519 27.304 24.5513C26.9516 24.5519 26.6452 24.422 26.3848 24.1615C26.1243 23.9011 25.9941 23.5944 25.9941 23.2414C25.9941 22.8896 26.1243 22.5835 26.3848 22.323L29.1425 19.5653C29.9085 18.7993 30.2915 17.8801 30.2915 16.8076C30.2915 15.7352 29.9085 14.8159 29.1425 14.0499C28.3765 13.2839 27.4572 12.9008 26.3848 12.9008C25.3123 12.9008 24.3931 13.2839 23.6271 14.0499L20.8693 16.8076C20.6089 17.0681 20.3025 17.198 19.9501 17.1974C19.5977 17.198 19.2913 17.0681 19.0309 16.8076C18.7704 16.5472 18.6402 16.2404 18.6402 15.8875C18.6402 15.5357 18.7704 15.2296 19.0309 14.9691L21.7886 12.2114C23.0602 10.9398 24.5923 10.3037 26.3848 10.3031C28.1773 10.3037 29.7094 10.9398 30.981 12.2114C32.2526 13.483 32.8884 15.0148 32.8884 16.8067C32.8884 18.5998 32.2526 20.1322 30.981 21.4038L28.2233 24.1615Z" fill="#004322"/>
</svg>
