<svg width="27" height="23" viewBox="0 0 27 23" fill="none" xmlns="http://www.w3.org/2000/svg">
<g id="interface-text-formatting-paragraph-bullets--Streamline-Plump" clip-path="url(#clip0_318_3640)">
<path id="Vector" d="M13.5 0C7.20949 0 4.12536 0.0647643 2.6514 0.1176C1.40425 0.162307 0.22631 0.657257 0.0771961 1.50274C0.0312961 1.7625 0 2.0898 0 2.5C0 2.9102 0.0312961 3.23751 0.0771961 3.49726C0.22631 4.34274 1.40425 4.8377 2.6514 4.88241C4.12536 4.93524 7.20949 5 13.5 5C19.7905 5 22.8746 4.93524 24.3486 4.88241C25.5958 4.8377 26.7737 4.34274 26.9228 3.49726C26.9687 3.23751 27 2.9102 27 2.5C27 2.0898 26.9687 1.7625 26.9228 1.50274C26.7737 0.657257 25.5958 0.162307 24.3486 0.1176C22.8746 0.0647643 19.7905 0 13.5 0Z" fill="#DD5C35"/>
<path id="Vector_2" d="M13.5 8C8.18184 8 5.2245 8.05983 3.59859 8.1182C1.72665 8.1854 0.196087 8.87866 0.0637872 9.89266C0.0258185 10.1844 0 10.5485 0 11C0 11.4515 0.0258185 11.8156 0.0637872 12.1073C0.196087 13.1213 1.72665 13.8146 3.59859 13.8818C5.2245 13.9402 8.18184 14 13.5 14C18.8182 14 21.7755 13.9402 23.4014 13.8818C25.2733 13.8146 26.8039 13.1213 26.9362 12.1073C26.9742 11.8156 27 11.4515 27 11C27 10.5485 26.9742 10.1844 26.9362 9.89266C26.8039 8.87866 25.2733 8.1854 23.4014 8.1182C21.7755 8.05983 18.8182 8 13.5 8Z" fill="#DD5C35"/>
<path id="Vector_3" d="M13.5 18C7.20949 18 4.12536 18.0648 2.6514 18.1176C1.40425 18.1623 0.22631 18.6573 0.0771961 19.5027C0.0312961 19.7625 0 20.0898 0 20.5C0 20.9102 0.0312961 21.2375 0.0771961 21.4973C0.22631 22.3427 1.40425 22.8377 2.6514 22.8824C4.12536 22.9352 7.20949 23 13.5 23C19.7905 23 22.8746 22.9352 24.3486 22.8824C25.5958 22.8377 26.7737 22.3427 26.9228 21.4973C26.9687 21.2375 27 20.9102 27 20.5C27 20.0898 26.9687 19.7625 26.9228 19.5027C26.7737 18.6573 25.5958 18.1623 24.3486 18.1176C22.8746 18.0648 19.7905 18 13.5 18Z" fill="#DD5C35"/>
</g>
<defs>
<clipPath id="clip0_318_3640">
<rect width="27" height="23" fill="white"/>
</clipPath>
</defs>
</svg>
