<svg width="22" height="22" viewBox="0 0 22 22" fill="none" xmlns="http://www.w3.org/2000/svg">
<g id="a" clip-path="url(#clip0_346_3711)">
<path id="Vector" d="M5.06032 -0.00445557H5.21091C5.25742 0.00218828 5.30171 0.0110468 5.34822 0.015476C5.47224 0.0265491 5.59847 0.0287637 5.72249 0.0486952C6.85859 0.236938 7.72893 0.817167 8.30252 1.82039C8.59928 2.33861 8.88718 2.86347 9.17729 3.38612C9.58257 4.11695 9.71544 4.89871 9.58478 5.72254C9.44747 6.59067 9.05992 7.337 8.4509 7.96816C8.32688 8.09661 8.23165 8.24278 8.16078 8.40444C7.95039 8.87616 7.94154 9.36116 8.06112 9.85502C8.18293 10.36 8.41989 10.8139 8.71665 11.2347C9.25702 12.0032 9.91476 12.6587 10.6699 13.2168C11.0664 13.5091 11.4938 13.7461 11.9677 13.8945C12.3398 14.0096 12.7162 14.0561 13.1016 13.9941C13.4537 13.9366 13.7726 13.8037 14.0384 13.5512C14.9021 12.734 15.923 12.3199 17.1211 12.3841C17.5773 12.4085 18.0158 12.5126 18.4189 12.7274C19.0213 13.0485 19.617 13.3851 20.2149 13.7195C20.5848 13.9255 20.9059 14.1934 21.1739 14.5212C21.6744 15.1347 21.9512 15.8345 21.9822 16.6273C21.9822 16.6805 21.9955 16.7336 22.0021 16.7846V16.9573C21.9955 17.0215 21.9866 17.0835 21.98 17.1477C21.9689 17.2607 21.9667 17.3781 21.949 17.4888C21.805 18.3702 21.4197 19.132 20.8085 19.7809C20.4364 20.1751 20.0267 20.5295 19.5882 20.8484C19.1032 21.2027 18.5806 21.4928 18.018 21.7054C17.3913 21.9424 16.7402 22.011 16.0758 22.0044C15.3073 21.9955 14.5455 21.9291 13.7881 21.794C12.7229 21.6036 11.6931 21.2957 10.6965 20.8727C9.43419 20.3368 8.26265 19.6436 7.16863 18.8176C6.31158 18.1709 5.51653 17.4556 4.77021 16.6827C3.89986 15.7813 3.11146 14.8135 2.43157 13.7594C1.69632 12.6189 1.10059 11.4119 0.682023 10.1208C0.199236 8.62812 -0.035513 7.10003 0.00435015 5.53209C0.0242817 4.75697 0.223597 4.03501 0.573507 3.34847C0.927845 2.65308 1.39956 2.04185 1.9355 1.47934C2.16803 1.23573 2.40942 1.00098 2.68625 0.808309C3.36614 0.329952 4.11025 0.0464806 4.94516 0.0132614C4.98281 0.0132614 5.02267 0.00218828 5.06032 -0.00445557Z" fill="#EEEEE4"/>
</g>
<defs>
<clipPath id="clip0_346_3711">
<rect width="22" height="22.0089" fill="white" transform="translate(0 -0.00445557)"/>
</clipPath>
</defs>
</svg>
