<svg width="22" height="22" viewBox="0 0 22 22" fill="none" xmlns="http://www.w3.org/2000/svg">
<g id="a" clip-path="url(#clip0_334_1447)">
<path id="Vector" d="M5.06032 -0.00439453H5.21091C5.25742 0.00224932 5.30171 0.0111078 5.34822 0.015537C5.47224 0.0266101 5.59847 0.0288247 5.72249 0.0487563C6.85859 0.236999 7.72893 0.817228 8.30252 1.82045C8.59928 2.33867 8.88718 2.86353 9.17729 3.38618C9.58257 4.11701 9.71544 4.89877 9.58478 5.7226C9.44747 6.59073 9.05992 7.33706 8.4509 7.96823C8.32688 8.09667 8.23165 8.24284 8.16078 8.4045C7.95039 8.87622 7.94154 9.36122 8.06112 9.85508C8.18293 10.36 8.41989 10.814 8.71665 11.2348C9.25702 12.0033 9.91476 12.6588 10.6699 13.2169C11.0664 13.5092 11.4938 13.7462 11.9677 13.8945C12.3398 14.0097 12.7162 14.0562 13.1016 13.9942C13.4537 13.9366 13.7726 13.8037 14.0384 13.5513C14.9021 12.7341 15.923 12.3199 17.1211 12.3842C17.5773 12.4085 18.0158 12.5126 18.4189 12.7274C19.0213 13.0486 19.617 13.3852 20.2149 13.7196C20.5848 13.9255 20.9059 14.1935 21.1739 14.5213C21.6744 15.1347 21.9512 15.8345 21.9822 16.6274C21.9822 16.6805 21.9955 16.7337 22.0021 16.7846V16.9574C21.9955 17.0216 21.9866 17.0836 21.98 17.1478C21.9689 17.2608 21.9667 17.3781 21.949 17.4889C21.805 18.3703 21.4197 19.1321 20.8085 19.781C20.4364 20.1752 20.0267 20.5295 19.5882 20.8484C19.1032 21.2028 18.5806 21.4929 18.018 21.7055C17.3913 21.9425 16.7402 22.0111 16.0758 22.0045C15.3073 21.9956 14.5455 21.9292 13.7881 21.7941C12.7229 21.6036 11.6931 21.2958 10.6965 20.8728C9.43419 20.3369 8.26265 19.6437 7.16863 18.8176C6.31158 18.171 5.51653 17.4556 4.77021 16.6827C3.89986 15.7814 3.11146 14.8136 2.43157 13.7594C1.69632 12.6189 1.10059 11.412 0.682023 10.1208C0.199236 8.62818 -0.035513 7.1001 0.00435015 5.53215C0.0242817 4.75703 0.223597 4.03507 0.573507 3.34854C0.927845 2.65315 1.39956 2.04191 1.9355 1.4794C2.16803 1.23579 2.40942 1.00104 2.68625 0.80837C3.36614 0.330013 4.11025 0.0465416 4.94516 0.0133224C4.98281 0.0133224 5.02267 0.00224932 5.06032 -0.00439453Z" fill="#EEEEE4"/>
</g>
<defs>
<clipPath id="clip0_334_1447">
<rect width="22" height="22.0089" fill="white" transform="translate(0 -0.00439453)"/>
</clipPath>
</defs>
</svg>
