<svg width="27" height="28" viewBox="0 0 27 28" fill="none" xmlns="http://www.w3.org/2000/svg">
<g id="mail-chat-bubble-oval-smiley-1--Streamline-Plump">
<path id="Subtract" fill-rule="evenodd" clip-rule="evenodd" d="M13.5 1.34375C6.51015 1.34375 0.84375 7.01015 0.84375 14C0.84375 16.2429 1.42744 18.3503 2.45139 20.1778C1.92106 21.5821 1.42338 23.2031 1.0976 24.8224C0.907807 25.7658 1.74347 26.5648 2.67625 26.3465C4.22394 25.9841 5.79499 25.4809 7.182 24.9689C9.04151 26.0422 11.1994 26.6562 13.5 26.6562C20.4899 26.6562 26.1562 20.9899 26.1562 14C26.1562 7.01015 20.4899 1.34375 13.5 1.34375ZM9.67683 6.92857H9.58296C9.57657 6.9297 9.57007 6.93103 9.56353 6.93237C9.54606 6.93596 9.52825 6.93961 9.51118 6.93961C8.99077 6.96031 8.52695 7.13695 8.10316 7.43502C7.93061 7.55507 7.78015 7.70135 7.63521 7.85314C7.30115 8.20365 7.00712 8.58452 6.78626 9.01783C6.56815 9.44561 6.44392 9.89548 6.43149 10.3785C6.40664 11.3555 6.55297 12.3076 6.8539 13.2377C7.11479 14.0423 7.48612 14.7943 7.94442 15.505C8.3682 16.1619 8.85963 16.7649 9.40213 17.3266C9.86732 17.8082 10.3629 18.2539 10.8971 18.6568C11.579 19.1716 12.3093 19.6035 13.0961 19.9374C13.7173 20.201 14.3592 20.3928 15.0231 20.5115C15.4952 20.5957 15.9701 20.6371 16.4491 20.6426C16.8632 20.6467 17.2691 20.6039 17.6597 20.4563C18.0103 20.3238 18.3361 20.143 18.6384 19.9223C18.9117 19.7235 19.1671 19.5027 19.399 19.2571C19.78 18.8528 20.0202 18.3781 20.1099 17.8289C20.117 17.785 20.1201 17.7395 20.1232 17.6941C20.125 17.668 20.1267 17.642 20.1293 17.6163C20.1313 17.5963 20.1337 17.5767 20.1362 17.557C20.1386 17.5373 20.141 17.5177 20.1431 17.4977V17.39C20.1417 17.3799 20.14 17.3695 20.1382 17.3591C20.1345 17.3371 20.1306 17.3146 20.1306 17.2921C20.1113 16.798 19.9388 16.362 19.6268 15.9797C19.4598 15.7755 19.2596 15.6085 19.0291 15.4802C18.9723 15.4484 18.9155 15.4166 18.8587 15.3848C18.5431 15.2081 18.2278 15.0315 17.9096 14.8619C17.6583 14.7281 17.385 14.6632 17.1007 14.6481C16.3539 14.608 15.7175 14.8661 15.1791 15.3753C15.0135 15.5326 14.8147 15.6154 14.5952 15.6513C14.355 15.6899 14.1204 15.6609 13.8884 15.5892C13.593 15.4967 13.3266 15.3491 13.0795 15.1669C12.6088 14.8192 12.1988 14.4107 11.862 13.9319C11.677 13.6697 11.5293 13.3868 11.4534 13.0721C11.3789 12.7644 11.3844 12.4622 11.5155 12.1683C11.5597 12.0675 11.6191 11.9765 11.6964 11.8964C12.076 11.5031 12.3175 11.0381 12.4031 10.4971C12.4846 9.9838 12.4017 9.49667 12.1491 9.04129C12.1102 8.97114 12.0713 8.90094 12.0324 8.83072C11.8907 8.57493 11.749 8.31902 11.6039 8.06566C11.2463 7.44054 10.7038 7.07899 9.9957 6.96169C9.9443 6.95343 9.8923 6.95006 9.84049 6.94669C9.81438 6.945 9.78832 6.9433 9.76241 6.94099C9.74356 6.9392 9.72529 6.93623 9.70684 6.93324C9.69693 6.93163 9.68696 6.93002 9.67683 6.92857Z" fill="#EEEEE4"/>
</g>
</svg>
