<svg width="24" height="24" viewBox="0 0 24 24" fill="none" xmlns="http://www.w3.org/2000/svg">
<g clip-path="url(#clip0_296_1392)">
<path d="M5.52035 0H5.68463C5.73537 0.00724784 5.78369 0.0169116 5.83442 0.0217435C5.96971 0.0338232 6.10742 0.0362392 6.24272 0.0579827C7.4821 0.263338 8.43156 0.896316 9.05729 1.99074C9.38103 2.55607 9.6951 3.12865 10.0116 3.69881C10.4537 4.49607 10.5987 5.3489 10.4561 6.24763C10.3063 7.19468 9.88355 8.00886 9.21916 8.6974C9.08387 8.83753 8.97998 8.99698 8.90267 9.17334C8.67316 9.68794 8.66349 10.217 8.79395 10.7558C8.92683 11.3066 9.18534 11.8019 9.50907 12.2609C10.0986 13.0993 10.8161 13.8144 11.6399 14.4232C12.0724 14.7421 12.5387 15.0006 13.0557 15.1625C13.4616 15.2881 13.8723 15.3388 14.2926 15.2712C14.6768 15.2084 15.0247 15.0634 15.3146 14.788C16.2568 13.8965 17.3706 13.4447 18.6776 13.5148C19.1753 13.5414 19.6536 13.6549 20.0933 13.8893C20.7505 14.2396 21.4004 14.6068 22.0527 14.9716C22.4561 15.1963 22.8064 15.4886 23.0988 15.8462C23.6448 16.5154 23.9468 17.2788 23.9806 18.1437C23.9806 18.2017 23.9951 18.2597 24.0023 18.3153V18.5037C23.9951 18.5738 23.9854 18.6414 23.9782 18.7115C23.9661 18.8347 23.9637 18.9628 23.9443 19.0836C23.7873 20.0451 23.3669 20.8762 22.7001 21.5841C22.2943 22.0141 21.8473 22.4006 21.3689 22.7485C20.8399 23.1351 20.2697 23.4516 19.656 23.6835C18.9723 23.942 18.262 24.0169 17.5373 24.0097C16.6989 24 15.8678 23.9275 15.0416 23.7801C13.8795 23.5724 12.7561 23.2366 11.6689 22.7751C10.2918 22.1905 9.01381 21.4343 7.82033 20.5331C6.88536 19.8277 6.01803 19.0473 5.20386 18.2041C4.25439 17.2209 3.39432 16.1651 2.65262 15.0151C1.85053 13.7709 1.20064 12.4542 0.744025 11.0457C0.217349 9.41735 -0.0387414 7.75035 0.00474562 6.03986C0.0264891 5.19428 0.243924 4.40668 0.625644 3.65774C1.01219 2.89913 1.52679 2.23233 2.11145 1.61868C2.36512 1.35293 2.62846 1.09684 2.93046 0.886652C3.67215 0.364808 4.48391 0.0555667 5.39472 0.0193276C5.43579 0.0193276 5.47928 0.00724784 5.52035 0Z" fill="#D1CB53"/>
</g>
<defs>
<clipPath id="clip0_296_1392">
<rect width="24" height="24.0097" fill="white"/>
</clipPath>
</defs>
</svg>
