<svg width="26" height="26" viewBox="0 0 26 26" fill="none" xmlns="http://www.w3.org/2000/svg">
<g clip-path="url(#clip0_495_3005)">
<path d="M2.39276 12.032L12.032 2.39276C15.236 -0.797588 20.4033 -0.797588 23.6072 2.39276C26.7976 5.58311 26.7976 10.764 23.6072 13.968L13.968 23.6072C10.764 26.7976 5.58311 26.7976 2.39276 23.6072C-0.797588 20.4033 -0.797588 15.236 2.39276 12.032ZM4.32879 13.968C2.89722 15.3859 2.42003 17.4174 2.91085 19.2307C2.91085 19.2307 3.54545 15.0344 8.03636 12.2909C12.5273 9.54741 16.8584 16.8584 16.8584 16.8584L21.6712 12.032C23.8117 9.90509 23.8117 6.45569 21.6712 4.32879C19.5443 2.18825 16.0949 2.18825 13.968 4.32879L4.32879 13.968Z" fill="#004322"/>
</g>
<defs>
<clipPath id="clip0_495_3005">
<rect width="26" height="26" fill="white"/>
</clipPath>
</defs>
</svg>
