<svg width="36" height="36" viewBox="0 0 36 36" fill="none" xmlns="http://www.w3.org/2000/svg">
<g id="mail-chat-bubble-oval-smiley-1--Streamline-Plump">
<path id="Exclude" fill-rule="evenodd" clip-rule="evenodd" d="M17.8328 1.28149C8.59939 1.28149 1.11426 8.76662 1.11426 18C1.11426 20.9628 1.88529 23.7466 3.23789 26.1606C2.53734 28.0157 1.87993 30.1569 1.44959 32.296C1.19888 33.5422 2.30276 34.5977 3.53492 34.3093C5.57938 33.8306 7.65468 33.1659 9.48688 32.4895C11.9432 33.9073 14.7938 34.7185 17.8328 34.7185C27.0661 34.7185 34.5512 27.2334 34.5512 18C34.5512 8.76662 27.0661 1.28149 17.8328 1.28149ZM15.451 13.6043C16.2017 13.1583 17.4195 12.4494 18.4013 11.9504C19.0624 11.6146 19.87 11.8718 20.2168 12.5287C20.5637 13.1857 20.3221 14.0004 19.6736 14.3602C19.4561 14.4809 19.232 14.6019 19.0046 14.7246C18.1825 15.1683 17.317 15.6355 16.5681 16.1956C15.568 16.9438 15.2373 17.5284 15.2373 17.9549L15.2345 19.9834C15.2338 20.4861 15.6398 20.8938 16.1407 20.8938H17.1408C17.6411 20.8938 18.0466 20.487 18.0466 19.9852C18.0466 19.4829 18.3219 19.0213 18.7631 18.7837C20.4615 17.8692 21.7747 17.1219 22.6864 16.2339C23.5278 15.4144 24 14.5 24 13.167C24 11.8342 23.5978 10.5825 22.8219 9.68572C22.0734 8.82045 20.8771 8.16699 19.0156 8.16699C17.4796 8.16699 16.0732 8.62608 15.004 9.32063C13.9178 10.0264 13.278 10.9045 13.0843 11.6802C12.8974 12.429 13.0444 13.0184 13.2984 13.3836C13.5387 13.7294 13.9408 13.9775 14.546 13.9654C14.7375 13.9616 15.0026 13.8707 15.451 13.6043ZM16.6869 28.167C17.9382 28.167 18.9526 27.1494 18.9526 25.8943C18.9526 24.6391 17.9382 23.6215 16.6869 23.6215C15.4357 23.6215 14.4213 24.6391 14.4213 25.8943C14.4213 27.1494 15.4357 28.167 16.6869 28.167Z" fill="#DD5C35"/>
</g>
</svg>
