<svg width="22" height="22" viewBox="0 0 22 22" fill="none" xmlns="http://www.w3.org/2000/svg">
<path id="Vector" fill-rule="evenodd" clip-rule="evenodd" d="M19.7137 9.85669C19.7137 11.7454 19.1716 13.5074 18.2346 14.9957C18.3712 15.1093 18.5074 15.2221 18.6432 15.3348C19.5393 16.0775 20.4217 16.8089 21.2921 17.6219C22.1523 18.4254 22.2591 19.6414 21.4455 20.4921C21.3315 20.6113 21.2071 20.7385 21.0715 20.8742C20.9359 21.0098 20.8086 21.1342 20.6894 21.2481C19.8387 22.0617 18.6227 21.955 17.8193 21.0948C17.0062 20.2244 16.2748 19.342 15.5321 18.4459C15.4195 18.31 15.3066 18.1738 15.1931 18.0373C13.7048 18.9743 11.9427 19.5163 10.0541 19.5163C4.71927 19.5163 0.394531 15.1915 0.394531 9.85669C0.394531 4.52185 4.71927 0.197113 10.0541 0.197113C15.3889 0.197113 19.7137 4.52185 19.7137 9.85669ZM4.48127 9.85669C4.48127 6.77892 6.97634 4.28386 10.0541 4.28386C13.1319 4.28386 15.6269 6.77892 15.6269 9.85669C15.6269 12.9345 13.1319 15.4295 10.0541 15.4295C6.97634 15.4295 4.48127 12.9345 4.48127 9.85669Z" fill="#DD5C35"/>
</svg>
