<svg width="40" height="40" viewBox="0 0 40 40" fill="none" xmlns="http://www.w3.org/2000/svg">
<g id="mail-chat-bubble-oval-smiley-1--Streamline-Plump">
<path id="Vector" fill-rule="evenodd" clip-rule="evenodd" d="M1.24951 20C1.24951 9.64467 9.64418 1.25 19.9995 1.25C30.3548 1.25 38.7495 9.64467 38.7495 20C38.7495 30.3553 30.3548 38.75 19.9995 38.75C16.5913 38.75 13.3943 37.8402 10.6395 36.2502C8.58468 37.0087 6.2572 37.7542 3.96432 38.2911C2.58244 38.6146 1.34441 37.4308 1.62559 36.0332C2.10822 33.6342 2.84552 31.2327 3.63119 29.1523C2.11424 26.4449 1.24951 23.3228 1.24951 20ZM25.2728 24.0856C25.7778 23.316 26.811 23.1016 27.5806 23.6066C28.3502 24.1116 28.5646 25.1448 28.0596 25.9144C26.2297 28.7029 23.0387 30 19.9995 30C16.9603 30 13.7693 28.7029 11.9394 25.9144C11.4344 25.1448 11.6488 24.1116 12.4184 23.6066C13.188 23.1016 14.2213 23.316 14.7263 24.0856C15.813 25.7416 17.8303 26.6667 19.9995 26.6667C22.1687 26.6667 24.186 25.7416 25.2728 24.0856ZM14.1662 12.5C15.0867 12.5 15.8328 13.2462 15.8328 14.1667V15.8333C15.8328 16.7538 15.0867 17.5 14.1662 17.5C13.2457 17.5 12.4995 16.7538 12.4995 15.8333V14.1667C12.4995 13.2462 13.2457 12.5 14.1662 12.5ZM24.1662 14.1667C24.1662 13.2462 24.9123 12.5 25.8328 12.5C26.7533 12.5 27.4995 13.2462 27.4995 14.1667V15.8333C27.4995 16.7538 26.7533 17.5 25.8328 17.5C24.9123 17.5 24.1662 16.7538 24.1662 15.8333V14.1667Z" fill="white"/>
</g>
</svg>
