<svg width="24" height="24" viewBox="0 0 24 24" fill="none" xmlns="http://www.w3.org/2000/svg">
<path fill-rule="evenodd" clip-rule="evenodd" d="M21.1969 7.83173C21.4268 7.83483 21.6299 7.83771 21.8066 7.84045C22.4992 7.8511 23.6012 8.12628 23.8914 9.20818C23.9581 9.457 24 9.74262 24 10.0658C24 10.3889 23.9581 10.6745 23.8914 10.9233C23.6435 11.8472 22.8037 12.1828 22.1325 12.2678L22.1297 12.2805L22.0671 12.2829C22.0073 12.7315 21.9408 13.3007 21.866 13.9404C21.6294 15.9644 21.3104 18.6943 20.8619 20.5449C20.512 21.9883 19.291 23.057 17.7858 23.2162C16.4691 23.3554 14.5793 23.5 12.4064 23.5C10.2336 23.5 8.34371 23.3554 7.02705 23.2162C5.52191 23.057 4.30081 21.9883 3.951 20.5449C3.47347 18.5746 3.10302 15.6075 2.84701 13.557C2.78642 13.0717 2.73224 12.6378 2.68457 12.2805L2.6825 12.2805L2.67726 12.2674C2.00654 12.1817 1.16902 11.8457 0.921606 10.9233C0.854859 10.6745 0.812988 10.3889 0.812988 10.0658C0.812988 9.74262 0.854859 9.457 0.921606 9.20818C1.21181 8.12628 2.31382 7.8511 3.00631 7.84045C3.18313 7.83771 3.38614 7.83483 3.61605 7.83173C4.43346 5.8226 5.40097 4.06013 6.00528 3.02982C6.50205 2.18291 7.4184 1.70091 8.3804 1.70091H9.14155C9.35281 1.0686 10.5677 0.709838 10.5677 0.709838C10.5677 0.709838 11.0975 0.5 12.4065 0.5C13.7154 0.5 14.2453 0.709838 14.2453 0.709838C14.2453 0.709838 15.4602 1.0686 15.6714 1.70091H16.4326C17.3946 1.70091 18.3109 2.18291 18.8077 3.02982C19.412 4.06013 20.3795 5.8226 21.1969 7.83173ZM2.55842 11.3362C2.53799 11.1837 2.52997 11.1239 2.55835 11.3363L2.55842 11.3362ZM12.4065 4.42683C13.2339 4.42683 14.2453 4.21286 14.2453 4.21286C14.2453 4.21286 15.4602 3.8541 15.6714 3.22179H16.4326C16.8744 3.22179 17.2639 3.44062 17.4688 3.79002C17.9932 4.68399 18.7947 6.13935 19.5171 7.81313C17.8549 7.79787 15.512 7.78443 12.4065 7.78443C9.30097 7.78443 6.95811 7.79787 5.29591 7.81313C6.01826 6.13935 6.81976 4.68399 7.34414 3.79002C7.54907 3.44062 7.93856 3.22179 8.3804 3.22179H9.14155C9.35281 3.8541 10.5677 4.21286 10.5677 4.21286C10.5677 4.21286 11.5791 4.42683 12.4065 4.42683ZM9.04957 15.6679C8.98924 15.2521 8.59774 14.9632 8.17517 15.0226C7.7526 15.082 7.45895 15.4672 7.51934 15.8829C7.51934 15.8829 7.40299 17.0963 7.5447 18.0772C7.68641 19.0582 8.0346 19.8056 8.0346 19.8056C8.09494 20.2214 8.48644 20.5103 8.90901 20.4509C9.33158 20.3915 9.62523 20.0063 9.56484 19.5906L9.04957 15.6679ZM16.6378 15.0226C16.2152 14.9632 15.8237 15.2521 15.7634 15.6679C15.7634 15.6679 15.5853 16.9553 15.3984 17.8902C15.2114 18.8252 15.2481 19.5906 15.2481 19.5906C15.1877 20.0063 15.4814 20.3915 15.904 20.4509C16.3265 20.5103 16.718 20.2214 16.7784 19.8056C16.7784 19.8056 16.9416 18.6382 17.036 18.0313C17.1304 17.4243 17.2936 15.8829 17.2936 15.8829C17.354 15.4672 17.0604 15.082 16.6378 15.0226ZM13.1794 15.7753C13.1794 15.3553 12.8333 15.0149 12.4065 15.0149C11.9796 15.0149 11.6336 15.3553 11.6336 15.7753C11.6336 15.7753 11.4715 17.3293 11.4715 17.8902C11.4715 18.4512 11.6336 19.698 11.6336 19.698C11.6336 20.118 11.9796 20.4584 12.4065 20.4584C12.8333 20.4584 13.1794 20.118 13.1794 19.698C13.1794 19.698 13.3414 18.6382 13.3414 17.8902C13.3414 17.1423 13.1794 15.7753 13.1794 15.7753Z" fill="#DD5C35"/>
</svg>
