<svg width="44" height="44" viewBox="0 0 44 44" fill="none" xmlns="http://www.w3.org/2000/svg">
<path d="M44 22C44 9.84974 34.1503 0 22 0C9.84974 0 0 9.84974 0 22C0 34.1503 9.84974 44 22 44C34.1503 44 44 34.1503 44 22Z" fill="#D1CB53"/>
<path fill-rule="evenodd" clip-rule="evenodd" d="M21.998 9.62503C15.1635 9.62503 9.62305 15.1655 9.62305 22C9.62305 24.1931 10.1938 26.2537 11.195 28.0405C10.6764 29.4136 10.1898 30.9986 9.87126 32.5819C9.68568 33.5044 10.5028 34.2857 11.4148 34.0721C12.9281 33.7178 14.4643 33.2258 15.8204 32.7251C17.6386 33.7746 19.7486 34.375 21.998 34.375C28.8326 34.375 34.373 28.8346 34.373 22C34.373 15.1655 28.8326 9.62503 21.998 9.62503ZM18.2594 15.0855H18.1676C18.1614 15.0866 18.155 15.0879 18.1486 15.0892C18.1315 15.0927 18.1141 15.0963 18.0974 15.0963C17.5886 15.1165 17.1351 15.2892 16.7207 15.5807C16.552 15.6981 16.4049 15.8411 16.2631 15.9895C15.9365 16.3322 15.649 16.7047 15.4331 17.1283C15.2198 17.5466 15.0983 17.9865 15.0862 18.4587C15.0619 19.414 15.2049 20.345 15.4992 21.2545C15.7543 22.0411 16.1174 22.7765 16.5655 23.4714C16.9798 24.1136 17.4603 24.7033 17.9908 25.2524C18.4456 25.7233 18.9302 26.1591 19.4525 26.5531C20.1193 27.0564 20.8333 27.4787 21.6027 27.8053C22.21 28.063 22.8377 28.2505 23.4869 28.3666C23.9485 28.4489 24.4128 28.4894 24.8812 28.4948C25.2861 28.4988 25.6829 28.457 26.0649 28.3126C26.4077 28.1831 26.7262 28.0063 27.0218 27.7904C27.2891 27.5961 27.5388 27.3802 27.7655 27.1401C28.1381 26.7447 28.3729 26.2806 28.4606 25.7436C28.4675 25.7007 28.4706 25.6562 28.4736 25.6118C28.4753 25.5863 28.4771 25.5609 28.4795 25.5358C28.4816 25.5162 28.4839 25.497 28.4863 25.4777C28.4887 25.4585 28.491 25.4393 28.493 25.4197V25.3145C28.4917 25.3045 28.49 25.2945 28.4883 25.2843C28.4846 25.2627 28.4809 25.2407 28.4809 25.2187C28.462 24.7356 28.2933 24.3093 27.9882 23.9355C27.8249 23.7358 27.6292 23.5725 27.4038 23.4471C27.3483 23.416 27.2928 23.3849 27.2373 23.3539C26.9286 23.181 26.6204 23.0084 26.3092 22.8426C26.0635 22.7117 25.7963 22.6483 25.5182 22.6334C24.788 22.5943 24.1658 22.8466 23.6394 23.3445C23.4774 23.4983 23.2831 23.5793 23.0685 23.6144C22.8336 23.6522 22.6042 23.6238 22.3774 23.5537C22.0886 23.4633 21.8281 23.3189 21.5865 23.1408C21.1262 22.8008 20.7253 22.4014 20.396 21.9332C20.2151 21.6768 20.0707 21.4002 19.9965 21.0925C19.9236 20.7917 19.929 20.4962 20.0572 20.2088C20.1004 20.1103 20.1585 20.0212 20.234 19.943C20.6052 19.5584 20.8414 19.1037 20.9251 18.5748C21.0047 18.0728 20.9238 17.5965 20.6768 17.1513C20.6387 17.0827 20.6006 17.014 20.5626 16.9454C20.4241 16.6953 20.2855 16.445 20.1436 16.1973C19.794 15.5861 19.2636 15.2326 18.5712 15.1179C18.5209 15.1098 18.4701 15.1065 18.4194 15.1032C18.3939 15.1016 18.3684 15.0999 18.3431 15.0976C18.3246 15.0959 18.3068 15.093 18.2887 15.0901C18.279 15.0885 18.2693 15.0869 18.2594 15.0855Z" fill="#004322"/>
</svg>
